<svg width="150" height="40" viewBox="0 0 150 40" fill="none" xmlns="http://www.w3.org/2000/svg">
<path fill-rule="evenodd" clip-rule="evenodd" d="M76.3392 26.1053C72.7838 26.1053 70.2909 23.2 70.2909 19.5792C70.2909 15.9579 72.7838 13.0531 76.3392 13.0531C79.8944 13.0531 82.3873 15.9579 82.3873 19.5792C82.3873 23.2 79.8944 26.1053 76.3392 26.1053ZM76.3392 9.26347C70.6587 9.26347 66.4086 13.6848 66.4086 19.5792C66.4086 25.4741 70.6587 29.8952 76.3392 29.8952C82.0193 29.8952 86.2696 25.4741 86.2696 19.5792C86.2696 13.6848 82.0193 9.26347 76.3392 9.26347ZM58.4393 23.2845C57.1317 25.0952 55.1293 26.1053 53.1677 26.1053C49.449 26.1053 46.7924 23.116 46.7924 19.5792C46.7924 16.1264 49.2445 13.0531 52.9637 13.0531C55.2928 13.0531 57.2542 14.2741 58.4393 15.8739V23.2845ZM58.562 11.4947C56.8049 9.93707 54.7206 9.26347 52.5548 9.26347C50.7565 9.26347 49.163 9.7264 47.8551 10.5264C44.9535 12.2952 42.9101 15.6213 42.9101 19.5792C42.9101 23.5368 44.9126 26.8216 47.8143 28.5893C49.1221 29.3896 50.9201 29.8952 52.6363 29.8952C54.9251 29.8952 56.8866 29.1371 58.4393 27.7475V28.8427C58.4393 31.3264 58.0715 32.8427 57.3768 33.9371C56.4371 35.4109 54.8024 36.2109 52.7181 36.2109C49.5714 36.2109 47.7734 34.5685 46.384 32.6741L43.5233 35.4109C44.7491 37.3896 47.896 40 52.8817 40C56.6822 40 59.6244 38.1896 61.1773 35.1157C61.9538 33.5581 62.3216 31.5789 62.3216 28.632V9.68453H58.562V11.4947ZM34.9411 23.2845C33.6336 25.0952 31.6308 26.1053 29.6697 26.1053C25.9505 26.1053 23.2942 23.116 23.2942 19.5792C23.2942 16.1264 25.746 13.0531 29.4653 13.0531C31.7946 13.0531 33.756 14.2741 34.9411 15.8739V23.2845ZM35.0638 11.4947C33.3064 9.93707 31.2227 9.26347 29.0563 9.26347C27.2583 9.26347 25.6645 9.7264 24.357 10.5264C21.4553 12.2952 19.412 15.6213 19.412 19.5792C19.412 23.5368 21.4144 26.8216 24.3161 28.5893C25.6236 29.3896 27.4216 29.8952 29.1381 29.8952C31.4266 29.8952 33.5106 29.0952 35.0638 27.6637V29.4741H38.8234V9.68453H35.0638V11.4947ZM14.3849 11.116C13.6493 11.916 12.5872 12.4213 10.6256 12.4213H4.08675V4H10.6256C12.5872 4 13.6493 4.50533 14.3849 5.3056C15.0801 6.06347 15.5292 7.07413 15.5292 8.21093C15.5292 9.34747 15.0801 10.3581 14.3849 11.116ZM16.7961 1.93707C15.4067 0.716 13.6085 0 10.8298 0H0V29.4741H4.08675V16.4216H10.8298C13.6085 16.4216 15.4067 15.7053 16.7961 14.4845C18.5123 12.9685 19.6156 10.7371 19.6156 8.21093C19.6156 5.68453 18.5123 3.45307 16.7961 1.93707Z" fill="#13294B"/>
<path fill-rule="evenodd" clip-rule="evenodd" d="M150 13.277V9.69448H143.852V4.21523H139.958V22.3396C139.958 24.4894 140.368 26.3018 141.515 27.6088C142.745 29.0418 144.549 29.9268 146.967 29.9268C148.073 29.9268 149.262 29.7581 150 29.5052L149.221 25.8805C148.647 26.0492 147.664 26.1331 147.09 26.1331C146.065 26.1331 144.959 25.7537 144.425 25.0797C143.934 24.4894 143.852 23.6045 143.852 22.5503V13.277H150ZM136.391 9.69448H131.801L127.251 16.1011L122.701 9.69448H118.11L124.709 19.094L117.414 29.5052H122.045L127.251 22.0866L132.456 29.5052H137.088L129.792 19.094L136.391 9.69448ZM110.24 31.3598L93.0241 9.69448H90.1553V29.5052H94.2544V17.5344L111.47 39.2H114.339V0H110.24V31.3598Z" fill="#47D7AC"/>
</svg>
